<?xml version="1.0" encoding="utf-8"?>
<!-- Svg Vector Icons : http://www.onlinewebfonts.com/icon -->
<!DOCTYPE svg PUBLIC "-//W3C//DTD SVG 1.1//EN" "http://www.w3.org/Graphics/SVG/1.1/DTD/svg11.dtd">
<svg version="1.1" xmlns="http://www.w3.org/2000/svg" xmlns:xlink="http://www.w3.org/1999/xlink" x="0px" y="0px" viewBox="0 0 1000 1000" enable-background="new 0 0 1000 1000" xml:space="preserve">
<metadata> Svg Vector Icons : http://www.onlinewebfonts.com/icon </metadata>
<g><path d="M10,498.2L10,498.2c0,67.1,54.4,121.4,121.4,121.4c67.1,0,121.4-54.4,121.4-121.4l0,0l0,0c0-67.1-54.4-121.4-121.4-121.4C64.4,376.8,10,431.1,10,498.2C10,565.3,10,498.2,10,498.2L10,498.2z"/><path d="M747.1,498.2c0,67.1,54.4,121.4,121.4,121.4c67.1,0,121.4-54.4,121.4-121.4c0-67.1-54.4-121.4-121.4-121.4C801.5,376.8,747.1,431.1,747.1,498.2L747.1,498.2z"/><path d="M747.1,132.7c0,67.1,54.4,121.4,121.4,121.4c67.1,0,121.4-54.4,121.4-121.4c0-67.1-54.4-121.4-121.4-121.4C801.5,11.2,747.1,65.6,747.1,132.7z"/><path d="M747.1,867.3c0,67.1,54.4,121.4,121.4,121.4c67.1,0,121.4-54.4,121.4-121.4s-54.4-121.4-121.4-121.4C801.5,745.9,747.1,800.3,747.1,867.3z"/><path d="M237.3,463.3h514.6v67.3H237.3V463.3z"/><path d="M346.7,498L577.2,98.5l58.3,33.6L405,531.7L346.7,498z"/><path d="M577.2,900.8L346.7,501.3l58.3-33.6l230.5,399.5L577.2,900.8z"/><path d="M576.4,97.8h178v67.3h-178V97.8L576.4,97.8z"/><path d="M577.6,833.7h176.8V901H577.6V833.7z"/></g>
</svg>